<svg xmlns="http://www.w3.org/2000/svg" width="32" height="32" viewBox="0 0 32 32">
  <!-- Fondo redondeado (bg-primary) -->
  <rect width="32" height="32" rx="8" ry="8" fill="#6419E6"/>
  <!-- Icono chart-bar-popular (Tabler) centrado y escalado -->
  <g transform="translate(4, 4) scale(1)" stroke="white" stroke-width="1.8" stroke-linecap="round" stroke-linejoin="round" fill="none">
    <path d="M3 13a1 1 0 0 1 1-1h4a1 1 0 0 1 1 1v6a1 1 0 0 1-1 1H4a1 1 0 0 1-1-1v-6"/>
    <path d="M9 9a1 1 0 0 1 1-1h4a1 1 0 0 1 1 1v10a1 1 0 0 1-1 1h-4a1 1 0 0 1-1-1V9"/>
    <path d="M15 5a1 1 0 0 1 1-1h4a1 1 0 0 1 1 1v14a1 1 0 0 1-1 1h-4a1 1 0 0 1-1-1V5"/>
    <path d="M4 20h14"/>
  </g>
</svg>